<?xml version="1.0" encoding="utf-8"?>
<!-- Generator: Adobe Illustrator 16.0.4, SVG Export Plug-In . SVG Version: 6.00 Build 0)  -->
<!DOCTYPE svg PUBLIC "-//W3C//DTD SVG 1.1//EN" "http://www.w3.org/Graphics/SVG/1.1/DTD/svg11.dtd">
<svg version="1.1" id="Layer_1" xmlns="http://www.w3.org/2000/svg" xmlns:xlink="http://www.w3.org/1999/xlink" x="0px" y="0px"
	 width="41px" height="24px" viewBox="0 0 41 24" enable-background="new 0 0 41 24" xml:space="preserve">
<g>
	<g>
		<path fill-rule="evenodd" clip-rule="evenodd" fill="#1A617F" d="M22,3V0h-1v3H8V0H7v3H0v21h29V3H22z M1,9h6v4H1V9z M21,13h-6V9h6
			V13z M21,14v4h-6v-4H21z M14,13H8V9h6V13z M14,14v4H8v-4H14z M1,14h6v4H1V14z M1,23v-4h6v4H1z M8,23v-4h6v4H8z M15,23v-4h6v4H15z
			 M28,23h-6v-4h6V23z M28,18h-6v-4h6V18z M28,13h-6V9h6V13z M28,8H1V4h6v1h1V4h13v1h1V4h6V8z"/>
	</g>
</g>
</svg>
