<?xml version="1.0" encoding="utf-8"?>
<!-- Generator: Adobe Illustrator 16.0.4, SVG Export Plug-In . SVG Version: 6.00 Build 0)  -->
<!DOCTYPE svg PUBLIC "-//W3C//DTD SVG 1.1//EN" "http://www.w3.org/Graphics/SVG/1.1/DTD/svg11.dtd">
<svg version="1.1" id="Layer_1" xmlns="http://www.w3.org/2000/svg" xmlns:xlink="http://www.w3.org/1999/xlink" x="0px" y="0px"
	 width="31px" height="19px" viewBox="0 0 31 19" enable-background="new 0 0 31 19" xml:space="preserve">
<g>
	<g>
		<path fill-rule="evenodd" clip-rule="evenodd" fill="#317FB3" d="M18,2V0h-1v2H5V0H4v2H0v17h22V2H18z M1,7h6v3H1V7z M14,10H8V7h6
			V10z M14,11v3H8v-3H14z M1,11h6v3H1V11z M1,18v-3h6v3H1z M8,18v-3h6v3H8z M21,18h-6v-3h6V18z M21,14h-6v-3h6V14z M21,10h-6V7h6V10
			z M21,6H1V3h3v1h1V3h12v1h1V3h3V6z"/>
	</g>
</g>
</svg>
