<svg xmlns="http://www.w3.org/2000/svg" width="39" height="39" viewBox="0 0 39 39"><circle fill="#fff" cx="19.5" cy="19.5" r="19.5"/><path fill="#1A617F" d="M19.5 0c-10.77 0-19.5 8.73-19.5 19.5s8.73 19.5 19.5 19.5 19.5-8.73 19.5-19.5-8.73-19.5-19.5-19.5zm0 38c-10.217 0-18.5-8.283-18.5-18.5s8.283-18.5 18.5-18.5 18.5 8.283 18.5 18.5-8.283 18.5-18.5 18.5zm10.605-29.813l-10.605 10.606-10.606-10.606-.707.707 10.605 10.606-10.605 10.605.707.707 10.606-10.605 10.606 10.605.707-.707-10.606-10.605 10.605-10.606-.707-.707z" id="Shape_64_copy"/></svg>
