<?xml version="1.0" encoding="utf-8"?>
<!-- Generator: Adobe Illustrator 16.0.4, SVG Export Plug-In . SVG Version: 6.00 Build 0)  -->
<!DOCTYPE svg PUBLIC "-//W3C//DTD SVG 1.1//EN" "http://www.w3.org/Graphics/SVG/1.1/DTD/svg11.dtd">
<svg version="1.1" id="Layer_1" xmlns="http://www.w3.org/2000/svg" xmlns:xlink="http://www.w3.org/1999/xlink" x="0px" y="0px"
	 width="20px" height="620px" viewBox="0 0 20 620" enable-background="new 0 0 20 620" xml:space="preserve">
<path fill="#7FCCFF" d="M0,0h20v20H0V0z"/>
<path fill="#F2FAFF" d="M1,1h18v18H1V1z"/>
<path fill="#7FCCFF" d="M0,200h20v20H0V200z"/>
<path fill="#D3EDFF" d="M1,201h18v18H1V201z"/>
<path fill="#7FCCFF" d="M0,400h20v20H0V400z"/>
<path fill="#F2FAFF" d="M1,401h18v18H1V401z"/>
<path fill="#7FCCFF" d="M0,600h20v20H0V600z"/>
<path fill="#D3EDFF" d="M1,601h18v18H1V601z"/>
<path fill="none" stroke="#000000" stroke-miterlimit="10" d="M3,403l14,14 M3,417l14-14 M3,603l14,14 M3,617l14-14"/>
</svg>
