<?xml version="1.0" encoding="utf-8"?>
<!-- Generator: Adobe Illustrator 16.0.4, SVG Export Plug-In . SVG Version: 6.00 Build 0)  -->
<!DOCTYPE svg PUBLIC "-//W3C//DTD SVG 1.1//EN" "http://www.w3.org/Graphics/SVG/1.1/DTD/svg11.dtd">
<svg version="1.1" id="Layer_1" xmlns="http://www.w3.org/2000/svg" xmlns:xlink="http://www.w3.org/1999/xlink" x="0px" y="0px"
	 width="25px" height="35px" viewBox="0 0 25 35" enable-background="new 0 0 25 35" xml:space="preserve">
<g>
	<path fill="#0099FF" d="M15.275,1L24,9.698V34H1V1H15.275 M15.688,0H0v35h25V9.281L15.688,0L15.688,0z"/>
</g>
<rect x="15" y="1" fill="#0099FF" width="1" height="8"/>
<rect x="15" y="9" fill="#0099FF" width="9" height="1"/>
<path fill-rule="evenodd" clip-rule="evenodd" fill="#0099FF" d="M3,30v-1h19v1H3z"/>
<path fill-rule="evenodd" clip-rule="evenodd" fill="#0099FF" d="M12,9h1v16h-1V9z"/>
<path fill-rule="evenodd" clip-rule="evenodd" fill="#0099FF" d="M13.01,25.274l-0.735,0.735L4.99,18.726l0.736-0.736L13.01,25.274z
	"/>
<path fill-rule="evenodd" clip-rule="evenodd" fill="#0099FF" d="M11.99,25.274l0.736,0.735l7.284-7.284l-0.735-0.736L11.99,25.274z
	"/>
</svg>
