<svg xmlns="http://www.w3.org/2000/svg" width="400" height="50" viewBox="0 0 400 50"><defs><style>.a{fill:none;}.b{fill:#fff;}</style></defs><title>footer-social</title><rect class="a" width="400" height="50"/><path class="b" d="M22,38V27H18V22h4V18.1s0-5.2,4.8-5.5c1.3-.1,4.2.1,4.2,0.1v3.9H28.8A2.29,2.29,0,0,0,27,19v3h4.5l-0.6,5H27V38H22Z"/><path class="b" d="M85,23H82.7a6.45,6.45,0,0,1,.3,2,8,8,0,0,1-16,0,6.45,6.45,0,0,1,.3-2H65V34a0.94,0.94,0,0,0,1,1H84a0.94,0.94,0,0,0,1-1V23Zm0-7a0.94,0.94,0,0,0-1-1H81a0.94,0.94,0,0,0-1,1v3a0.94,0.94,0,0,0,1,1h3a0.94,0.94,0,0,0,1-1V16ZM75,20a5,5,0,1,0,5,5,5,5,0,0,0-5-5M85,38H65a3,3,0,0,1-3-3V15a3,3,0,0,1,3-3H85a3,3,0,0,1,3,3V35a3,3,0,0,1-3,3"/><path class="b" d="M141,26.6V37.7h-6.4V27.3c0-2.6-.9-4.4-3.3-4.4a3.51,3.51,0,0,0-3.3,2.4,3.9,3.9,0,0,0-.2,1.6V37.7h-6.4s0.1-17.5,0-19.3h6.4v2.8h0V21.1a6.51,6.51,0,0,1,5.8-3.2C137.8,17.9,141,20.6,141,26.6ZM114.6,9a3.31,3.31,0,1,0,0,6.6h0a3.35,3.35,0,0,0,3.6-3.3A3.29,3.29,0,0,0,114.6,9Zm-3.2,28.7h6.4V18.3h-6.4V37.7Z"/><path class="b" d="M190.1,15.5a13.64,13.64,0,0,1-3.6,1,5.93,5.93,0,0,0,2.7-3.5,13.16,13.16,0,0,1-3.9,1.5,6.11,6.11,0,0,0-4.5-2,6.25,6.25,0,0,0-6.2,6.3,5.9,5.9,0,0,0,.2,1.4,17.52,17.52,0,0,1-12.7-6.6,6.63,6.63,0,0,0,1.9,8.5,5.38,5.38,0,0,1-2.8-.8v0.1a6.24,6.24,0,0,0,5,6.2,8.75,8.75,0,0,1-1.6.2,4.87,4.87,0,0,1-1.2-.1,6.35,6.35,0,0,0,5.8,4.4,12.22,12.22,0,0,1-7.7,2.7,7.57,7.57,0,0,1-1.5-.1,17.1,17.1,0,0,0,9.5,2.8c11.4,0,17.6-9.6,17.6-18V18.7a18.33,18.33,0,0,0,3-3.2"/><path class="b" d="M212.7,14a0.78,0.78,0,0,0-.7.3,1.1,1.1,0,0,0,0,.8l3.4,6h0L210,30.6a1.1,1.1,0,0,0,0,.8,0.78,0.78,0,0,0,.7.3h5.1a1.54,1.54,0,0,0,1.4-1s5.3-9.3,5.5-9.7l-3.5-6.1a1.54,1.54,0,0,0-1.4-1h-5.1V14Z"/><path class="b" d="M234.1,7a1.54,1.54,0,0,0-1.4,1s-11,19.4-11.3,20.1l7.2,13.3a1.54,1.54,0,0,0,1.4,1h5.1a0.91,0.91,0,0,0,.7-0.3,1.1,1.1,0,0,0,0-.8L228.6,28h0L239.9,8.1a1.1,1.1,0,0,0,0-.8,0.78,0.78,0,0,0-.7-0.3h-5.1Z"/><path class="b" d="M292.3,17.9a7.24,7.24,0,0,0-1.4-3.5,5,5,0,0,0-3.5-1.5c-4.9-.4-12.4-0.4-12.4-0.4h0s-7.4,0-12.4.4a5,5,0,0,0-3.5,1.5,7.24,7.24,0,0,0-1.4,3.5,48.65,48.65,0,0,0-.4,5.8v2.7a48.65,48.65,0,0,0,.4,5.8,7.24,7.24,0,0,0,1.4,3.5,5.68,5.68,0,0,0,3.9,1.5c2.8,0.3,12,.4,12,0.4s7.4,0,12.4-.4a5,5,0,0,0,3.5-1.5,7.24,7.24,0,0,0,1.4-3.5,48.65,48.65,0,0,0,.4-5.8V23.7A48.64,48.64,0,0,0,292.3,17.9Zm-21.4,12v-10l9.7,4.9Z"/><path class="b" d="M308,21.48c0.5-.12,33.92-7.35,33.92-7.35l-13.31,21.7-7.7-7.37,10.72-8.53-12.69,6.23-1.52,7.29-0.56-8.06Z"/><rect class="b" x="365" y="12" width="20" height="7"/><path class="b" d="M385,38H365V28h20V38Zm-2-8H367v1h16V30Zm0,2H367v1h16V32Zm0,2H367v1h16V34Z"/><path class="b" d="M358,31V20h34V31h-6V27H364v4h-6Zm8.5-10a1.5,1.5,0,1,0,1.5,1.5A1.5,1.5,0,0,0,366.5,21Zm4,0a1.5,1.5,0,1,0,1.5,1.5A1.5,1.5,0,0,0,370.5,21Z"/></svg>