<?xml version="1.0" encoding="utf-8"?>
<!-- Generator: Adobe Illustrator 16.0.4, SVG Export Plug-In . SVG Version: 6.00 Build 0)  -->
<!DOCTYPE svg PUBLIC "-//W3C//DTD SVG 1.1//EN" "http://www.w3.org/Graphics/SVG/1.1/DTD/svg11.dtd">
<svg version="1.1" id="Layer_1" xmlns="http://www.w3.org/2000/svg" xmlns:xlink="http://www.w3.org/1999/xlink" x="0px" y="0px"
	 width="20px" height="20px" viewBox="1 1 20 20" enable-background="new 1 1 20 20" xml:space="preserve">
<rect display="none" fill="#F39200" width="22" height="21.979"/>
<path display="none" fill="#FFFFFF" d="M16.859,17.482h0.927c-1.849-6.609-6.409-11.468-12.852-13.7V4.73
	C10.858,6.883,15.077,11.386,16.859,17.482"/>
<path display="none" fill="#FFFFFF" d="M4.933,14.65v1.224c0.516,0.497,0.993,1.034,1.428,1.608h1.087
	C6.732,16.422,5.897,15.473,4.933,14.65"/>
<path display="none" fill="#FFFFFF" d="M4.933,8.894v0.988c3.11,1.718,5.484,4.313,6.954,7.599h0.955
	C11.238,13.702,8.531,10.76,4.933,8.894"/>
<path display="none" fill="#0099FF" d="M0,22h22V0H0V22z M19,5l-8,7.344L3,5H19z M4.083,4.958L4.083,4.958L4.083,4.958z M2,6
	l5.809,5.277L2,16V6z M3,17l5.586-4.941L11,14.531l2.402-2.486L19,17H3z M20,16l-5.818-4.734L20,6V16z M17.917,4.958L17.917,4.958z"
	/>
<path display="none" fill="#36A9E1" d="M0,22h22V0H0V22z M18.168,6.948c0.073,5.302-3.066,9.173-7.153,10.532
	c-3.067,1.016-6.591,0.569-9.007-1.129c1.559,0.106,3.329-0.023,5.429-1.523c-1.816-0.215-3-1.139-3.441-2.582
	c0.394,0.068,0.955,0.086,1.589-0.064c-1.526-0.656-2.806-1.438-2.914-3.708c0.458,0.29,0.857,0.431,1.655,0.462
	C3.242,8.176,2.017,5.942,3.2,4.033c2.89,3.316,5.874,3.706,7.616,3.842c-0.613-4.801,4.607-5.599,6.356-3.376
	c0.768-0.063,1.694-0.536,2.318-0.928c-0.256,1.026-1.069,1.68-1.59,2.053c0.818-0.07,1.418-0.308,2.055-0.529
	C19.568,5.842,18.633,6.672,18.168,6.948"/>
<path display="none" fill="#1D71B8" d="M0,22h22V0H0V22z M17.531,13.521h-3.526V22h-3.13v-8.479H7.733v-3.136h3.142V7.821
	c0-2.884,2.186-4.597,4.762-4.597c1.231,0,2.073,0.133,2.385,0.174v2.958l-2.354-0.001c-1.399,0-1.662,0.694-1.662,1.67
	l-0.006,2.361h4.032L17.531,13.521z"/>
<rect display="none" fill="#70544A" width="22" height="22"/>
<path display="none" fill="#FFFFFF" d="M10.981,6.757c2.333,0,4.224,1.891,4.224,4.224c0,2.332-1.891,4.224-4.224,4.224
	c-2.333,0-4.223-1.893-4.223-4.224C6.758,8.647,8.648,6.757,10.981,6.757"/>
<path display="none" fill="#FFFFFF" d="M19.43,18.583c0,0.466-0.379,0.844-0.848,0.844H3.378c-0.467,0-0.845-0.378-0.845-0.844
	V9.291h1.912c-0.139,0.542-0.222,1.106-0.222,1.69c0,3.732,3.025,6.758,6.757,6.758s6.756-3.025,6.756-6.758
	c0-0.584-0.082-1.149-0.221-1.69h1.912v9.292H19.43z"/>
<path display="none" fill="#FFFFFF" d="M19.43,5.913c0,0.466-0.379,0.845-0.848,0.845h-2.533c-0.467,0-0.845-0.379-0.845-0.845
	V3.378c0-0.466,0.378-0.844,0.845-0.844h2.533c0.469,0,0.848,0.378,0.848,0.844V5.913z"/>
<rect x="1" y="0.989" fill="#BE1622" width="20" height="20"/>
<polygon fill="#FFFFFF" points="7.5,15.5 7.5,6.5 15.719,10.802 "/>
</svg>
