<?xml version="1.0" encoding="utf-8"?>
<!-- Generator: Adobe Illustrator 18.1.1, SVG Export Plug-In . SVG Version: 6.00 Build 0)  -->
<svg version="1.1" xmlns="http://www.w3.org/2000/svg" xmlns:xlink="http://www.w3.org/1999/xlink" x="0px" y="0px" width="20px"
	 height="20px" viewBox="-3 -1 20 20" enable-background="new -3 -1 20 20" xml:space="preserve">
<g id="Layer_2">
	<rect x="-3" y="-1" fill="#FFFFFF" width="20" height="20"/>
</g>
<g id="Layer_1">
	<rect x="-3" y="-1" display="none" fill="#F39200" width="22" height="22"/>
	<path display="none" fill="#FFFFFF" d="M13.9,16.5h0.9C12.9,9.9,8.4,5,1.9,2.8v0.9C7.9,5.9,12.1,10.4,13.9,16.5"/>
	<path display="none" fill="#FFFFFF" d="M1.9,13.6v1.2c0.5,0.5,1,1,1.4,1.6h1.1C3.7,15.4,2.9,14.5,1.9,13.6"/>
	<path display="none" fill="#FFFFFF" d="M1.9,7.9v1c3.1,1.7,5.5,4.3,7,7.6h1C8.2,12.7,5.5,9.8,1.9,7.9"/>
	<path display="none" fill="#0099FF" d="M-3,21h22V-1H-3V21z M16,4l-8,7.3L0,4H16z M1.1,4L1.1,4L1.1,4z M-1,5l5.8,5.3L-1,15V5z
		 M0,16l5.6-4.9L8,13.5l2.4-2.5l5.6,5H0z M17,15l-5.8-4.7L17,5V15z M14.9,4L14.9,4z"/>
	<path display="none" fill="#36A9E1" d="M-3,21h22V-1H-3V21z M15.2,5.9c0.1,5.3-3.1,9.2-7.2,10.5c-3.1,1-6.6,0.6-9-1.1
		c1.6,0.1,3.3,0,5.4-1.5c-1.8-0.2-3-1.1-3.4-2.6c0.4,0.1,1,0.1,1.6-0.1c-1.5-0.7-2.8-1.4-2.9-3.7c0.5,0.3,0.9,0.4,1.7,0.5
		C0.2,7.2-1,4.9,0.2,3c2.9,3.3,5.9,3.7,7.6,3.8c-0.6-4.8,4.6-5.6,6.4-3.4c0.8-0.1,1.7-0.5,2.3-0.9c-0.3,1-1.1,1.7-1.6,2.1
		c0.8-0.1,1.4-0.3,2.1-0.5C16.6,4.8,15.6,5.7,15.2,5.9"/>
	<path fill="#1D71B8" d="M-3,19h20V-1H-3V19z M12.9,11.3H9.7V19H6.9v-7.7H4V8.4h2.9V6.1c0-2.6,2-4.2,4.3-4.2c1.1,0,1.9,0.1,2.2,0.2
		v2.7l-2.1,0c-1.3,0-1.5,0.6-1.5,1.5l0,2.1h3.7L12.9,11.3z"/>
</g>
</svg>
