<?xml version="1.0" encoding="utf-8"?>
<!-- Generator: Adobe Illustrator 16.0.4, SVG Export Plug-In . SVG Version: 6.00 Build 0)  -->
<!DOCTYPE svg PUBLIC "-//W3C//DTD SVG 1.1//EN" "http://www.w3.org/Graphics/SVG/1.1/DTD/svg11.dtd">
<svg version="1.1" id="Layer_1" xmlns="http://www.w3.org/2000/svg" xmlns:xlink="http://www.w3.org/1999/xlink" x="0px" y="0px"
	 width="20px" height="20px" viewBox="1 1 20 20" enable-background="new 1 1 20 20" xml:space="preserve">
<rect display="none" fill="#F39200" width="22" height="21.979"/>
<path display="none" fill="#FFFFFF" d="M16.859,17.482h0.927c-1.849-6.609-6.409-11.468-12.852-13.7V4.73
	C10.858,6.883,15.077,11.386,16.859,17.482"/>
<path display="none" fill="#FFFFFF" d="M4.933,14.65v1.224c0.516,0.497,0.993,1.034,1.428,1.608h1.087
	C6.732,16.422,5.897,15.473,4.933,14.65"/>
<path display="none" fill="#FFFFFF" d="M4.933,8.894v0.988c3.11,1.718,5.484,4.313,6.954,7.599h0.955
	C11.238,13.702,8.531,10.76,4.933,8.894"/>
<path fill="#0099FF" d="M1,21h20V1H1V21z M18.5,5.5L11,12.222L3.5,5.5H18.5z M4.712,5.507L4.712,5.507L4.712,5.507z M3.5,6.5
	l4.599,4.751L3.5,15.5V6.5z M3.5,16.5l5.305-4.538L11,14.21l2.184-2.26L18.5,16.5H3.5z M18.5,15.5l-4.607-4.258L18.5,6.5V15.5z
	 M17.288,5.507L17.288,5.507z"/>
<path display="none" fill="#36A9E1" d="M0,22h22V0H0V22z M18.168,6.948c0.073,5.302-3.066,9.173-7.153,10.532
	c-3.067,1.016-6.591,0.569-9.007-1.129c1.559,0.106,3.329-0.023,5.429-1.523c-1.816-0.215-3-1.139-3.441-2.582
	c0.394,0.068,0.955,0.086,1.589-0.064c-1.526-0.656-2.806-1.438-2.914-3.708c0.458,0.29,0.857,0.431,1.655,0.462
	C3.242,8.176,2.017,5.942,3.2,4.033c2.89,3.316,5.874,3.706,7.616,3.842c-0.613-4.801,4.607-5.599,6.356-3.376
	c0.768-0.063,1.694-0.536,2.318-0.928c-0.256,1.026-1.069,1.68-1.59,2.053c0.818-0.07,1.418-0.308,2.055-0.529
	C19.568,5.842,18.633,6.672,18.168,6.948"/>
</svg>
