<?xml version="1.0" encoding="utf-8"?>
<!-- Generator: Adobe Illustrator 16.0.4, SVG Export Plug-In . SVG Version: 6.00 Build 0)  -->
<!DOCTYPE svg PUBLIC "-//W3C//DTD SVG 1.1//EN" "http://www.w3.org/Graphics/SVG/1.1/DTD/svg11.dtd">
<svg version="1.1" id="Layer_1" xmlns="http://www.w3.org/2000/svg" xmlns:xlink="http://www.w3.org/1999/xlink" x="0px" y="0px"
	 width="20px" height="20px" viewBox="1 1 20 20" enable-background="new 1 1 20 20" xml:space="preserve">
<rect x="1" y="1" fill="#0075B2" width="20" height="20"/>
<path fill="#FFFFFF" d="M3.966,8.549h3.017v9.701H3.966V8.549z M5.475,3.727c0.963,0,1.746,0.784,1.746,1.748
	c0,0.965-0.784,1.749-1.746,1.749c-0.966,0-1.748-0.784-1.748-1.749C3.727,4.511,4.508,3.727,5.475,3.727"/>
<path fill="#FFFFFF" d="M8.873,8.549h2.893v1.325h0.04c0.403-0.763,1.387-1.567,2.854-1.567c3.051,0,3.614,2.008,3.614,4.622v5.321
	h-3.011v-4.717c0-1.126-0.021-2.572-1.567-2.572c-1.569,0-1.808,1.226-1.808,2.489v4.8H8.873V8.549z"/>
</svg>
