<?xml version="1.0" encoding="utf-8"?>
<!-- Generator: Adobe Illustrator 18.1.1, SVG Export Plug-In . SVG Version: 6.00 Build 0)  -->
<svg version="1.1" id="Layer_1" xmlns="http://www.w3.org/2000/svg" xmlns:xlink="http://www.w3.org/1999/xlink" x="0px" y="0px"
	 width="20px" height="20px" viewBox="-3 -1 20 20" enable-background="new -3 -1 20 20" xml:space="preserve">
<rect x="-3" y="-1" fill="#FFFFFF" width="20" height="20"/>
<path fill="#36A9E1" d="M-3,19h20V-1H-3V19z M13.5,5.3c0.1,4.8-2.8,8.3-6.5,9.6c-2.8,0.9-6,0.5-8.2-1c1.4,0.1,3,0,4.9-1.4
	c-1.7-0.2-2.7-1-3.1-2.3c0.4,0.1,0.9,0.1,1.4-0.1C0.7,9.5-0.5,8.8-0.6,6.7C-0.2,7,0.2,7.1,0.9,7.1c-1-0.7-2.1-2.7-1-4.5
	c2.6,3,5.3,3.4,6.9,3.5C6.3,1.8,11,1.1,12.6,3.1c0.7-0.1,1.5-0.5,2.1-0.8c-0.2,0.9-1,1.5-1.4,1.9C14,4,14.6,3.8,15.1,3.6
	C14.8,4.3,13.9,5.1,13.5,5.3"/>
</svg>
