<?xml version="1.0" encoding="UTF-8"?>
<svg width="290px" height="101px" viewBox="0 0 290 101" version="1.1" xmlns="http://www.w3.org/2000/svg" xmlns:xlink="http://www.w3.org/1999/xlink">
    <!-- Generator: Sketch 43.2 (39069) - http://www.bohemiancoding.com/sketch -->
    <title>Group 2</title>
    <desc>Created with Sketch.</desc>
    <defs>
        <path d="M0.100285714,1.06412122 C0.273667265,0.841757612 0.653562321,0.687606383 1.09478571,0.687606383 L271.623857,0.687606383 C272.227243,0.687606383 272.718643,0.977489362 272.718643,1.3356383 C272.718643,1.69279787 272.227243,1.98268085 271.623857,1.98268085 L1.09478571,1.98268085 C0.653562321,1.98268085 0.273667265,1.82852962 0.100285714,1.60654967 L0.100285714,1.06412122 L0.100285714,1.06412122 Z M0.100285714,49.4423663 C0.273667265,49.6646312 0.653562321,49.8193085 1.09478571,49.8193085 L271.623857,49.8193085 C272.227243,49.8193085 272.718643,49.5284362 272.718643,49.1712766 C272.718643,48.814117 272.227243,48.5232447 271.623857,48.5232447 L1.09478571,48.5232447 C0.653562321,48.5232447 0.273667265,48.677922 0.100285714,48.9001869 L0.100285714,49.4423663 L0.100285714,49.4423663 Z" id="path-1"></path>
    </defs>
    <g id="Page-1" stroke="none" stroke-width="1" fill="none" fill-rule="evenodd">
        <g id="Group-2">
            <rect id="Rectangle" stroke="#212121" stroke-width="2" x="1" y="1" width="288" height="99"></rect>
            <g id="Lundbergs_logo_tagline_center_grey_vect" transform="translate(9.000000, 25.000000)">
                <polyline id="Fill-18" fill="#212121" points="22.1731714 50.0120106 0.297514286 50.0120106 0.297514286 0.303287234 7.58995714 0.303287234 7.58995714 42.9121596 22.1731714 42.9121596 22.1731714 50.0120106"></polyline>
                <path d="M53.1664714,42.9121596 C53.1664714,44.8995319 52.4611286,46.5809043 51.0521143,47.9546489 C49.6414286,49.3283936 47.9165143,50.0120106 45.8740286,50.0120106 L34.9362,50.0120106 C32.8937143,50.0120106 31.1671286,49.3283936 29.7581143,47.9546489 C28.3474286,46.5809043 27.6437571,44.8995319 27.6437571,42.9121596 L27.6437571,0.303287234 L34.9362,0.303287234 L34.9362,42.9121596 L45.8740286,42.9121596 L45.8740286,0.303287234 L53.1664714,0.303287234 L53.1664714,42.9121596" id="Fill-19" fill="#212121"></path>
                <polyline id="Fill-20" fill="#212121" points="85.1058 50.0120106 78.6891857 50.0120106 66.8755286 17.4897447 66.8755286 50.0120106 59.5830857 50.0120106 59.5830857 0.303287234 67.4588571 0.303287234 77.8133571 29.5604681 77.8133571 0.303287234 85.1058 0.303287234 85.1058 50.0120106"></polyline>
                <path d="M98.8148571,42.9121596 L109.752686,42.9121596 L109.752686,7.40476596 L98.8148571,7.40476596 L98.8148571,42.9121596 Z M117.0468,42.9121596 C117.0468,44.8995319 116.341457,46.5809043 114.932443,47.9546489 C113.520086,49.3283936 111.795171,50.0120106 109.754357,50.0120106 L91.5240857,50.0120106 L91.5240857,0.303287234 L109.754357,0.303287234 C111.795171,0.303287234 113.520086,0.990159574 114.932443,2.3622766 C116.341457,3.73602128 117.0468,5.41739362 117.0468,7.40476596 L117.0468,42.9121596 L117.0468,42.9121596 Z" id="Fill-21" fill="#212121"></path>
                <path d="M130.754186,42.9121596 L141.692014,42.9121596 L141.692014,27.2866277 L130.754186,27.2866277 L130.754186,42.9121596 Z M130.754186,20.1867766 L141.692014,20.1867766 L141.692014,7.4031383 L130.754186,7.4031383 L130.754186,20.1867766 Z M148.986129,42.9121596 C148.986129,44.8995319 148.280786,46.5809043 146.8701,47.9546489 C145.461086,49.3283936 143.7345,50.0120106 141.693686,50.0120106 L123.463414,50.0120106 L123.463414,0.303287234 L141.693686,0.303287234 C143.7345,0.303287234 145.461086,0.990159574 146.8701,2.3622766 C148.280786,3.73602128 148.986129,5.41739362 148.986129,7.40476596 L148.986129,18.2693936 C148.986129,20.9680532 147.769329,22.7910319 145.339071,23.7383298 C147.769329,24.6856277 148.986129,26.5069787 148.986129,29.2056383 L148.986129,42.9121596 L148.986129,42.9121596 Z" id="Fill-22" fill="#212121"></path>
                <polyline id="Fill-23" fill="#212121" points="177.280071 50.0120106 155.402743 50.0120106 155.402743 0.303287234 177.280071 0.303287234 177.280071 7.40476596 162.695186 7.40476596 162.695186 20.1867766 173.633014 20.1867766 173.633014 27.2882553 162.695186 27.2882553 162.695186 42.9121596 177.280071 42.9121596 177.280071 50.0120106"></polyline>
                <path d="M190.551214,23.0270426 L201.489043,23.0270426 L201.489043,7.4031383 L190.551214,7.4031383 L190.551214,23.0270426 Z M208.781486,50.0120106 L201.051129,50.0120106 L196.237414,30.1301489 L190.551214,30.1301489 L190.551214,50.0120106 L183.258771,50.0120106 L183.258771,0.303287234 L201.489043,0.303287234 C203.531529,0.303287234 205.256443,0.990159574 206.667129,2.3622766 C208.077814,3.73602128 208.781486,5.41739362 208.781486,7.40476596 L208.781486,23.0270426 C208.781486,26.9090106 206.861014,29.1600638 203.020071,29.7736915 L208.781486,50.0120106 L208.781486,50.0120106 Z" id="Fill-24" fill="#212121"></path>
                <path d="M240.648943,42.9121596 C240.648943,44.8995319 239.9436,46.5809043 238.532914,47.9546489 C237.122229,49.3283936 235.397314,50.0120106 233.3565,50.0120106 L222.418671,50.0120106 C220.376186,50.0120106 218.6496,49.3283936 217.240586,47.9546489 C215.828229,46.5809043 215.124557,44.8995319 215.124557,42.9121596 L215.124557,7.40476596 C215.124557,5.41739362 215.828229,3.73602128 217.240586,2.3622766 C218.6496,0.990159574 220.376186,0.303287234 222.418671,0.303287234 L233.3565,0.303287234 C235.397314,0.303287234 237.122229,0.990159574 238.532914,2.3622766 C239.9436,3.73602128 240.648943,5.41739362 240.648943,7.40476596 L240.648943,14.5062447 L233.3565,14.5062447 L233.3565,7.40476596 L222.418671,7.40476596 L222.418671,42.9121596 L233.3565,42.9121596 L233.3565,30.8381809 L227.885914,30.8381809 L227.885914,23.7383298 L240.648943,23.7383298 L240.648943,42.9121596" id="Fill-25" fill="#212121"></path>
                <path d="M269.014757,28.0695319 C271.348071,30.2945426 272.514729,32.802766 272.514729,35.5974574 L272.514729,42.9121596 C272.514729,44.8995319 271.809386,46.5809043 270.402043,47.9546489 C268.989686,49.3283936 267.266443,50.0120106 265.223957,50.0120106 L254.284457,50.0120106 C252.241971,50.0120106 250.517057,49.3283936 249.106371,47.9546489 C247.697357,46.5809043 246.993686,44.8995319 246.993686,42.9121596 L246.993686,35.8106809 L254.284457,35.8106809 L254.284457,42.9121596 L265.223957,42.9121596 L265.223957,34.6745745 L250.491986,20.4 C248.158671,18.1749894 246.993686,15.666766 246.993686,12.8737021 L246.993686,7.40476596 C246.993686,5.41739362 247.697357,3.73602128 249.106371,2.3622766 C250.517057,0.990159574 252.241971,0.303287234 254.284457,0.303287234 L265.223957,0.303287234 C267.266443,0.303287234 268.989686,0.990159574 270.402043,2.3622766 C271.809386,3.73602128 272.514729,5.41739362 272.514729,7.40476596 L272.514729,14.5062447 L265.223957,14.5062447 L265.223957,7.40476596 L254.284457,7.40476596 L254.284457,13.7965851 L269.014757,28.0695319" id="Fill-26" fill="#212121"></path>
                <g id="Group-38" transform="translate(0.000000, 0.542553)">
                    <mask id="mask-2" fill="white">
                        <use xlink:href="#path-1"></use>
                    </mask>
                    <g id="Clip-37"></g>
                    <polygon id="Fill-36" mask="url(#mask-2)" points="0.100285714 66.287234 272.718643 66.287234 272.718643 -12.4056064 0.100285714 -12.4056064"></polygon>
                </g>
            </g>
        </g>
    </g>
</svg>
