<?xml version="1.0" encoding="utf-8"?>
<!-- Generator: Adobe Illustrator 16.0.4, SVG Export Plug-In . SVG Version: 6.00 Build 0)  -->
<!DOCTYPE svg PUBLIC "-//W3C//DTD SVG 1.1//EN" "http://www.w3.org/Graphics/SVG/1.1/DTD/svg11.dtd">
<svg version="1.1" id="Layer_1" xmlns="http://www.w3.org/2000/svg" xmlns:xlink="http://www.w3.org/1999/xlink" x="0px" y="0px"
	 width="58px" height="48px" viewBox="0 0 58 48" enable-background="new 0 0 58 48" xml:space="preserve">
<path fill="none" stroke="#FFFFFF" stroke-miterlimit="10" d="M56,6.709c-1.985,0.882-4.122,1.48-6.362,1.748
	c2.286-1.375,4.044-3.552,4.87-6.146c-2.14,1.273-4.511,2.198-7.033,2.696c-2.022-2.16-4.9-3.508-8.088-3.508
	c-6.119,0-11.08,4.974-11.08,11.107c0,0.87,0.1,1.719,0.287,2.531c-9.206-0.462-17.37-4.885-22.834-11.606
	c-0.953,1.641-1.5,3.549-1.5,5.584c0,3.854,1.956,7.255,4.928,9.247c-1.815-0.057-3.524-0.558-5.017-1.389
	c0,0.046-0.001,0.092-0.001,0.139c0,5.383,3.819,9.873,8.887,10.892c-0.93,0.253-1.909,0.39-2.92,0.39
	c-0.714,0-1.407-0.068-2.084-0.198c1.411,4.412,5.502,7.623,10.35,7.713c-3.792,2.98-8.568,4.757-13.759,4.757
	c-0.894,0-1.777-0.054-2.644-0.157C6.903,43.662,12.726,45.5,18.983,45.5c20.379,0,31.521-16.926,31.521-31.604
	c0-0.482-0.012-0.96-0.031-1.437C52.638,10.893,54.515,8.937,56,6.709"/>
</svg>
