<?xml version="1.0" encoding="utf-8"?>
<!-- Generator: Adobe Illustrator 16.0.4, SVG Export Plug-In . SVG Version: 6.00 Build 0)  -->
<!DOCTYPE svg PUBLIC "-//W3C//DTD SVG 1.1//EN" "http://www.w3.org/Graphics/SVG/1.1/DTD/svg11.dtd">
<svg version="1.1" id="Layer_1" xmlns="http://www.w3.org/2000/svg" xmlns:xlink="http://www.w3.org/1999/xlink" x="0px" y="0px"
	 width="48px" height="48px" viewBox="0 0 48 48" enable-background="new 0 0 48 48" xml:space="preserve">
<g id="Layer_1_1_">
	<path fill="none" stroke="#FFFFFF" stroke-miterlimit="10" d="M44.018,1.5H3.983C2.611,1.5,1.5,2.611,1.5,3.983v40.035
		c0,1.368,1.111,2.481,2.483,2.481h21.553V29.075h-5.865v-6.793h5.865v-5.008c0-5.812,3.549-8.977,8.733-8.977
		c2.484,0,4.619,0.184,5.24,0.268v6.074l-3.596,0.002c-2.82,0-3.367,1.34-3.367,3.306v4.335h6.727l-0.877,6.793h-5.85V46.5h11.471
		c1.369,0,2.481-1.113,2.481-2.482V3.983C46.5,2.611,45.387,1.5,44.018,1.5"/>
</g>
</svg>
