<?xml version="1.0" encoding="utf-8"?>
<!-- Generator: Adobe Illustrator 16.0.4, SVG Export Plug-In . SVG Version: 6.00 Build 0)  -->
<!DOCTYPE svg PUBLIC "-//W3C//DTD SVG 1.1//EN" "http://www.w3.org/Graphics/SVG/1.1/DTD/svg11.dtd">
<svg version="1.1" id="Layer_1" xmlns="http://www.w3.org/2000/svg" xmlns:xlink="http://www.w3.org/1999/xlink" x="0px" y="0px"
	 width="48px" height="48px" viewBox="0 0 48 48" enable-background="new 0 0 48 48" xml:space="preserve">
<path fill="none" stroke="#1db954" stroke-miterlimit="10" d="M43.167,1.5H4.822C2.989,1.5,1.5,2.954,1.5,4.742v38.512
	c0,1.791,1.489,3.246,3.322,3.246h38.345c1.835,0,3.333-1.455,3.333-3.246V4.742C46.5,2.954,45.002,1.5,43.167,1.5 M16.5,39.5h-7
	V18.525l7-0.025V39.5z M40.5,39.5h-6v-9.943c0-2.491-0.215-5.057-3.635-5.057c-3.473,0-4.365,2.199-4.365,5v10h-6v-21h6v3h0.184
	c0.891-1.688,3.068-3,6.316-3c6.754,0,7.5,3.936,7.5,9.721V39.5z"/>
<circle fill="none" stroke="#1db954" stroke-miterlimit="10" cx="13" cy="11.5" r="4"/>
</svg>
