<svg xmlns="http://www.w3.org/2000/svg" width="100" height="50" viewBox="0 0 100 50"><defs><style>.a{fill:none;}.b{fill:#fff;}</style></defs><title>Untitled-3</title><rect class="a" width="100" height="50"/><path class="b" d="M34,40H14V10H34V40Zm-10-.92a1.5,1.5,0,1,0-1.5-1.5A1.5,1.5,0,0,0,24,39.08ZM33,13H15V35H33V13Zm-7-2H22v1h4V11Z"/><path class="b" d="M91,35H59V15H91V35ZM75,28.5l3.36-2.6L91,35,79.3,25,91,16V15L75,27,59,15v1l11.59,9L59,35l12.53-9.13Z"/><rect class="b" x="16" y="14" width="16" height="20"/></svg>