<?xml version="1.0" encoding="utf-8"?>
<!-- Generator: Adobe Illustrator 16.0.4, SVG Export Plug-In . SVG Version: 6.00 Build 0)  -->
<!DOCTYPE svg PUBLIC "-//W3C//DTD SVG 1.1//EN" "http://www.w3.org/Graphics/SVG/1.1/DTD/svg11.dtd">
<svg version="1.1" id="Layer_1" xmlns="http://www.w3.org/2000/svg" xmlns:xlink="http://www.w3.org/1999/xlink" x="0px" y="0px"
	 width="60px" height="312px" viewBox="0 0 60 312" enable-background="new 0 0 60 312" xml:space="preserve">
<g>
	<g>
		<path fill-rule="evenodd" clip-rule="evenodd" fill="#FF6A00" d="M55,305v-5h-2v5h-5v2h5v5h2v-5h5v-2H55z M39,300h-2v5h-5v2h5v5h2
			v-5h5v-2h-5V300z M23,300h-2v5h-5v2h5v5h2v-5h5v-2h-5V300z M7,300H5v5H0v2h5v5h2v-5h5v-2H7V300z"/>
	</g>
</g>
<g>
	<g>
		<path fill-rule="evenodd" clip-rule="evenodd" fill="#FF6A00" d="M47,205v-5h-2v5h-5v2h5v5h2v-5h5v-2H47z M31,200h-2v5h-5v2h5v5h2
			v-5h5v-2h-5V200z M15,200h-2v5H8v2h5v5h2v-5h5v-2h-5V200z"/>
	</g>
</g>
<g>
	<g>
		<path fill-rule="evenodd" clip-rule="evenodd" fill="#FF6A00" d="M39,105v-5h-2v5h-5v2h5v5h2v-5h5v-2H39z M23,100h-2v5h-5v2h5v5h2
			v-5h5v-2h-5V100z"/>
	</g>
</g>
<g>
	<g>
		<polygon fill-rule="evenodd" clip-rule="evenodd" fill="#FF6A00" points="36,5 31,5 31,0 29,0 29,5 24,5 24,7 29,7 29,12 31,12 
			31,7 36,7 		"/>
	</g>
</g>
</svg>
