<svg xmlns="http://www.w3.org/2000/svg" width="1600" height="246" viewBox="0 0 1600 246"><path fill-rule="evenodd" clip-rule="evenodd" fill="#FF6A00" d="M1602 80.818l-.961-2.839-491.433-70.354-.179-.086-.005-.07-.11.015-.031-.015-.007.02-.319.042-.436-.062.049.114-693.146 92.299.003.051-1.136-.036.003.022-414.507-99.919-.53 2.95 408.682 98.221-436.417 69.161v2.998l443.497-70.464 948.194 29.44 236.819 113.348.979-2.832-481.875-230.637 482.866 68.633zm-1168.576 19.683l675.423-89.939 248.971 119.163-924.394-29.224z"/></svg>