<?xml version="1.0" encoding="utf-8"?>
<!-- Generator: Adobe Illustrator 18.1.1, SVG Export Plug-In . SVG Version: 6.00 Build 0)  -->
<svg version="1.1" id="polygon_example_01" xmlns="http://www.w3.org/2000/svg" xmlns:xlink="http://www.w3.org/1999/xlink" x="0px"
	 y="0px" width="1600px" height="841.3px" viewBox="786 -411.3 1600 841.3" enable-background="new 786 -411.3 1600 841.3"
	 xml:space="preserve">
<polygon fill="#FFFFFF" points="782.5,2442.1 1492.3,2584.7 2096.1,2535.3 2388.1,2330.4 2388.1,2701.7 782.7,2701.7 "/>
<polygon fill="#FFFFFF" points="990.7,2041.4 1542.7,1948.4 2120.7,1999.4 2387.7,2033.4 2387.7,2112.5 786,2112.5 "/>
<polygon fill="#FFFFFF" points="780.7,627.7 780.7,647.4 1087.1,641.5 1394.9,728.5 1712.1,1260.4 2394.7,1261.8 2394.7,627.7 "/>
<rect x="774.7" y="340.8" fill="#FFFFFF" width="1620" height="99.1"/>
<rect x="774.7" y="1261.8" fill="#FFFFFF" width="1620" height="71.6"/>
<g>
	<polygon fill="#FFFFFF" points="2414.7,-426.6 774.7,-426.6 774.7,339.3 1172.9,339.3 1525.8,33 1696.7,-275.8 2185.4,-275.8 	"/>
	<polyline fill="#FFFFFF" stroke="#FF6A00" stroke-width="3" stroke-linejoin="round" stroke-miterlimit="10" points="
		1750.2,-175.8 1696.7,-275.8 1525.8,33 1172.9,339.3 921.1,426.7 787.5,339.3 1360,339.3 1526.6,33.8 1750,-177.2 	"/>
	<polyline fill="#FFFFFF" stroke="#FF6A00" stroke-width="3" stroke-linejoin="round" stroke-miterlimit="10" points="2408,-260.3 
		2185.4,-275.8 2396,-415.3 	"/>
	<polygon fill="#FFFFFF" stroke="#FF6A00" stroke-width="3" stroke-linejoin="round" stroke-miterlimit="10" points="1696.7,-275.8 
		2185.4,-275.8 1750,-177.2 	"/>
</g>
<g>
	
		<polyline fill="#FFFFFF" stroke="#0099FF" stroke-width="3" stroke-linecap="round" stroke-linejoin="round" stroke-miterlimit="10" points="
		774.7,641.5 1087.1,641.5 1355.7,796.5 1712.1,1260.2 2386,1260.2 1748.9,1324.4 1400.4,719 1087.1,641.5 774.7,771.2 	"/>
	
		<line fill="none" stroke="#0099FF" stroke-width="3" stroke-linecap="round" stroke-linejoin="round" stroke-miterlimit="10" x1="1400.4" y1="719" x2="1355.7" y2="796.5"/>
</g>
<polyline fill="#FFFFFF" stroke="#0099FF" stroke-width="3" stroke-linejoin="round" stroke-miterlimit="10" points="2387.7,2099.4 
	2005.1,1989 1413.6,1994.7 1291.6,1899.5 786,2112.5 1413.6,1994.7 1291.6,1899.5 2005.1,1989 2387.7,1828.7 "/>
<g>
	<polyline fill="none" stroke="#0099FF" stroke-width="3" stroke-linejoin="round" stroke-miterlimit="10" points="2388.1,2670.2 
		2094.7,2534.6 1493.5,2585 1330,2698.6 786.4,2443.3 1493.5,2585 	"/>
	<polyline fill="none" stroke="#0099FF" stroke-width="3" stroke-linejoin="round" stroke-miterlimit="10" points="1330,2698.6 
		2094.9,2534.7 2385.6,2332.7 	"/>
</g>
</svg>
