<?xml version="1.0" encoding="utf-8"?>
<!-- Generator: Adobe Illustrator 18.0.0, SVG Export Plug-In . SVG Version: 6.00 Build 0)  -->
<!DOCTYPE svg PUBLIC "-//W3C//DTD SVG 1.1//EN" "http://www.w3.org/Graphics/SVG/1.1/DTD/svg11.dtd">
<svg version="1.1" id="Lager_1" xmlns="http://www.w3.org/2000/svg" xmlns:xlink="http://www.w3.org/1999/xlink" x="0px" y="0px"
	 width="29px" height="24px" viewBox="0 0 29 24" enable-background="new 0 0 29 24" xml:space="preserve">
<g>
	<path fill="#1db954" d="M19.7,1.8c1.4,0,2.6,0.5,3.4,1.4l0.4,0.4l0.5-0.1C24.5,3.4,25,3.2,25.6,3c-0.1,0.1-0.1,0.1-0.2,0.2
		l-2.6,2.7L26,4.9c-0.4,0.4-0.8,0.7-1.1,1l-0.4,0.3l0,0.5c0,6.8-3.9,12.6-10,14.6c-1.5,0.5-3.1,0.8-4.8,0.8c-2.1,0-4.2-0.4-6-1.3
		c1.8-0.2,3.5-0.7,5.2-1.7l2-1.3l-2.3-0.6c-1.5-0.4-2.6-1.2-3.3-2.4l4,0L5.7,13c-1.1-0.6-2.2-1.4-2.6-3.3c0.1,0,0.1,0,0.2,0.1
		l3.1,0.9L4.4,8.2c-1-1.2-1.7-3.2-1-4.9c4.3,4.6,8.9,5,10.4,5.1l1.2,0.1l-0.1-1.2c-0.1-1.6,0.3-3,1.1-4C16.9,2.4,18.2,1.8,19.7,1.8
		 M27.6,0.7l-0.9,0.5c-0.5,0.3-1.9,1.1-3,1.3c-0.9-1.1-2.5-1.7-4.1-1.7c-1.7,0-3.4,0.7-4.4,1.9c-1,1.2-1.5,2.8-1.4,4.7
		C11.7,7.2,7.5,6.6,3.5,2L3.1,1.6L2.8,2C1.4,4.4,2.2,7.2,3.6,8.8C3.2,8.7,3,8.6,2.6,8.4L2,8l0,0.8c0.1,2.9,1.5,4.2,3.2,5.2
		c-0.3,0-0.5,0-0.8-0.1l-0.7-0.1L4,14.4c0.6,2,2.1,3.3,4.3,3.9c-1.8,1.1-3.6,1.6-5.7,1.6c-0.4,0-0.7,0-1.1,0L0,19.7l1.2,0.9
		c2.3,1.6,5.3,2.5,8.4,2.5c1.7,0,3.5-0.3,5.1-0.8c6.6-2.2,10.7-8.3,10.7-15.5C26.2,6.2,27.5,5,28,4l0.5-0.9l-1.3,0.4
		c-0.4,0.1-0.7,0.3-1.1,0.4c0.5-0.6,1-1.3,1.3-2.2L27.6,0.7L27.6,0.7z"/>
</g>
</svg>
