<?xml version="1.0" encoding="utf-8"?>
<!-- Generator: Adobe Illustrator 18.0.0, SVG Export Plug-In . SVG Version: 6.00 Build 0)  -->
<!DOCTYPE svg PUBLIC "-//W3C//DTD SVG 1.1//EN" "http://www.w3.org/Graphics/SVG/1.1/DTD/svg11.dtd">
<svg version="1.1" id="Lager_1" xmlns="http://www.w3.org/2000/svg" xmlns:xlink="http://www.w3.org/1999/xlink" x="0px" y="0px"
	 width="27px" height="27px" viewBox="0 0 27 27" enable-background="new 0 0 27 27" xml:space="preserve">
<g>
	<g>
		<path fill="#FFFFFF" d="M5.7,9.7v15.6H1.6V9.7H5.7 M6.7,8.7H0.6v17.6h6.1V8.7L6.7,8.7z"/>
	</g>
	<g>
		<path fill="#FFFFFF" d="M3.6,1.4c1.4,0,2.5,1.1,2.5,2.5S5,6.3,3.6,6.3S1.2,5.2,1.2,3.9S2.3,1.4,3.6,1.4 M3.6,0.4
			C1.7,0.4,0.2,2,0.2,3.9s1.6,3.5,3.5,3.5s3.5-1.6,3.5-3.5S5.5,0.4,3.6,0.4L3.6,0.4z"/>
	</g>
	<g>
		<path fill="#FFFFFF" d="M19.9,9.3L19.9,9.3c0.1,0,0.2,0,0.4,0c1.4,0,2.6,0.5,3.4,1.4c1.7,1.9,1.6,5,1.6,5l0,0v0l0,9.5H21v-8.4
			c0-3.6-2-4.2-3.2-4.2c-2.7,0-3.6,2-3.6,3.9v8.6H10V9.7H14V10v2.4l1.7-1.7C16.3,10.1,17.6,9.3,19.9,9.3 M19.9,8.3
			c-2.6,0-4.1,0.9-4.9,1.7V8.7H9v17.6h6.1v-9.6c0-0.9,0.3-2.9,2.6-2.9c1.5,0,2.2,1,2.2,3.2v9.4h6.1l0-10.5c0-0.1,0.2-3.5-1.8-5.7
			c-1-1.1-2.4-1.7-4.1-1.8C20.1,8.3,20,8.3,19.9,8.3L19.9,8.3z"/>
	</g>
</g>
</svg>
