<?xml version="1.0" encoding="utf-8"?>
<!-- Generator: Adobe Illustrator 18.0.0, SVG Export Plug-In . SVG Version: 6.00 Build 0)  -->
<!DOCTYPE svg PUBLIC "-//W3C//DTD SVG 1.1//EN" "http://www.w3.org/Graphics/SVG/1.1/DTD/svg11.dtd">
<svg version="1.1" id="Lager_1" xmlns="http://www.w3.org/2000/svg" xmlns:xlink="http://www.w3.org/1999/xlink" x="0px" y="0px"
	 width="20.6px" height="34px" viewBox="0 0 20.6 34" enable-background="new 0 0 20.6 34" xml:space="preserve">
<g>
	<defs>
		<rect id="SVGID_1_" x="0" width="20.6" height="34"/>
	</defs>
	<clipPath id="SVGID_2_">
		<use xlink:href="#SVGID_1_"  overflow="visible"/>
	</clipPath>
	<g clip-path="url(#SVGID_2_)">
		<g>
			<path fill="#0099FF" d="M15.3,1c1.5,0,2.6,0.1,3.4,0.2v3.6l-3.3,0c-3.6,0-4.1,2.3-4.1,4.1v4.3v1h1h6.2L18,17.9h-5.6h-1v1v14.6
				H7.6V18.9v-1h-1H1.8v-3.8h4.8h1v-1V8.5C7.6,3.3,11.6,1,15.3,1 M15.3,0c-4.7,0-8.8,3.1-8.8,8.5v4.7H0.8v5.8h5.8v15.6h5.8V18.9h6.5
				l0.9-5.8h-7.4V8.8c0-1.8,0.5-3.1,3.1-3.1l4.3,0V0.3C19.2,0.2,17.6,0,15.3,0L15.3,0z"/>
		</g>
		<rect x="8.1" y="32.8" fill="#FFFFFF" width="2.7" height="4.7"/>
	</g>
</g>
</svg>
