<?xml version="1.0" encoding="utf-8"?>
<!-- Generated by IcoMoon.io -->
<!DOCTYPE svg PUBLIC "-//W3C//DTD SVG 1.1//EN" "http://www.w3.org/Graphics/SVG/1.1/DTD/svg11.dtd">

<svg version="1.1" xmlns="http://www.w3.org/2000/svg" xmlns:xlink="http://www.w3.org/1999/xlink" width="368" height="16" viewBox="0 0 368 16">
<g transform="translate(0 0)">
	<path d="M8 0c-4.418 0-8 3.582-8 8s3.582 8 8 8 8-3.582 8-8-3.582-8-8-8zM11 4c0.552 0 1 0.672 1 1.5s-0.448 1.5-1 1.5-1-0.672-1-1.5 0.448-1.5 1-1.5zM5 4c0.552 0 1 0.672 1 1.5s-0.448 1.5-1 1.5-1-0.672-1-1.5 0.448-1.5 1-1.5zM8 14c-2.607 0-4.772-2.186-5-4.973 1.465 0.846 3.188 1.329 5 1.329s3.535-0.481 5-1.327c-0.228 2.788-2.393 4.971-5 4.971z" fill="#8c5666"></path>
</g>
<g transform="translate(32 0)">
	<path d="M8 0c-4.418 0-8 3.582-8 8s3.582 8 8 8 8-3.582 8-8-3.582-8-8-8zM11 4c0.552 0 1 0.448 1 1s-0.448 1-1 1-1-0.448-1-1 0.448-1 1-1zM5 4c0.552 0 1 0.448 1 1s-0.448 1-1 1-1-0.448-1-1 0.448-1 1-1zM8 13c-1.82 0-3.413-0.973-4.288-2.427l1.286-0.772c0.612 1.018 1.727 1.699 3.002 1.699s2.389-0.681 3.002-1.699l1.286 0.772c-0.874 1.454-2.467 2.427-4.288 2.427z" fill="#8c5666"></path>
</g>
<g transform="translate(64 0)">
	<path d="M8 0c-4.418 0-8 3.582-8 8s3.582 8 8 8 8-3.582 8-8-3.582-8-8-8zM5 4c0.552 0 1 0.448 1 1s-0.448 1-1 1-1-0.448-1-1 0.448-1 1-1zM12 10h-1v1.5c0 0.828-0.672 1.5-1.5 1.5s-1.5-0.672-1.5-1.5v-1.5h-4v-1h8v1zM11 6c-0.552 0-1-0.448-1-1s0.448-1 1-1 1 0.448 1 1-0.448 1-1 1z" fill="#8c5666"></path>
</g>
<g transform="translate(96 0)">
	<path d="M8 0c-4.418 0-8 3.582-8 8s3.582 8 8 8 8-3.582 8-8-3.582-8-8-8zM11 4c0.552 0 1 0.448 1 1s-0.448 1-1 1-1-0.448-1-1 0.448-1 1-1zM5 4c0.552 0 1 0.448 1 1s-0.448 1-1 1-1-0.448-1-1 0.448-1 1-1zM11.002 12.199c-0.612-1.018-1.727-1.699-3.002-1.699s-2.389 0.681-3.002 1.699l-1.286-0.772c0.874-1.454 2.467-2.427 4.288-2.427s3.414 0.973 4.288 2.427l-1.286 0.772z" fill="#8c5666"></path>
</g>
<g transform="translate(128 0)">
	<path d="M8 0c-4.418 0-8 3.582-8 8s3.582 8 8 8c4.418 0 8-3.582 8-8s-3.582-8-8-8zM11 4c0.552 0 1 0.672 1 1.5s-0.448 1.5-1 1.5-1-0.672-1-1.5 0.448-1.5 1-1.5zM5.5 4.876c0.932 0 1.594 0.349 1.594 0.895 0 0.116 0.060 0.672-0.003 0.775-0.232-0.384-0.856-0.659-1.591-0.659s-1.359 0.275-1.591 0.659c-0.062-0.103-0.003-0.659-0.003-0.775 0-0.546 0.662-0.895 1.594-0.895zM7.818 13c-1.863 0-3.498-1.004-4.42-2.515 1.1 0.86 3.040 1.028 5.083 0.625 2.191-0.433 3.892-1.43 4.507-2.759-0.338 2.624-2.524 4.649-5.17 4.649z" fill="#8c5666"></path>
</g>
<g transform="translate(160 0)">
	<path d="M8 0c-4.418 0-8 3.582-8 8s3.582 8 8 8c4.418 0 8-3.582 8-8s-3.582-8-8-8zM8 13c-0.757 0-1.475-0.169-2.118-0.47l0.518-0.864c0.49 0.214 1.031 0.334 1.6 0.334 1.456 0 2.731-0.778 3.43-1.942l0.858 0.515c-0.874 1.454-2.467 2.427-4.288 2.427zM13 6c0 0.55-0.45 1-1 1h-2c-0.55 0-1-0.45-1-1h-2c0 0.55-0.45 1-1 1h-2c-0.55 0-1-0.45-1-1v-1.5c0-0.275 0.225-0.5 0.5-0.5h3c0.275 0 0.5 0.225 0.5 0.5v0.5h2v-0.5c0-0.275 0.225-0.5 0.5-0.5h3c0.275 0 0.5 0.225 0.5 0.5v1.5z" fill="#8c5666"></path>
</g>
<g transform="translate(192 0)">
	<path d="M8 0c-4.418 0-8 3.582-8 8s3.582 8 8 8 8-3.582 8-8-3.582-8-8-8zM5 7c-0.552 0-1-0.672-1-1.5s0.448-1.5 1-1.5 1 0.672 1 1.5-0.448 1.5-1 1.5zM8 13c-1.105 0-2-0.895-2-2s0.895-2 2-2c1.105 0 2 0.895 2 2s-0.895 2-2 2zM11 7c-0.552 0-1-0.672-1-1.5s0.448-1.5 1-1.5 1 0.672 1 1.5-0.448 1.5-1 1.5z" fill="#8c5666"></path>
</g>
<g transform="translate(224 0)">
	<path d="M6 6.5c0 0.276-0.224 0.5-0.5 0.5s-0.5-0.224-0.5-0.5 0.224-0.5 0.5-0.5 0.5 0.224 0.5 0.5z" fill="#8c5666"></path>
	<path d="M11 6.5c0 0.276-0.224 0.5-0.5 0.5s-0.5-0.224-0.5-0.5 0.224-0.5 0.5-0.5 0.5 0.224 0.5 0.5z" fill="#8c5666"></path>
	<path d="M8 0c-4.418 0-8 3.582-8 8s3.582 8 8 8 8-3.582 8-8-3.582-8-8-8zM4 6.5c0-0.828 0.672-1.5 1.5-1.5s1.5 0.672 1.5 1.5-0.672 1.5-1.5 1.5-1.5-0.672-1.5-1.5zM10 12h-4v-1h4v1zM10.5 8c-0.828 0-1.5-0.672-1.5-1.5s0.672-1.5 1.5-1.5 1.5 0.672 1.5 1.5-0.672 1.5-1.5 1.5z" fill="#8c5666"></path>
</g>
<g transform="translate(256 0)">
	<path d="M8 0c-4.418 0-8 3.582-8 8s3.582 8 8 8c4.418 0 8-3.582 8-8s-3.582-8-8-8zM11 4c0.552 0 1 0.448 1 1s-0.448 1-1 1-1-0.448-1-1c0-0.552 0.448-1 1-1zM5 4c0.552 0 1 0.448 1 1s-0.448 1-1 1-1-0.448-1-1c0-0.552 0.448-1 1-1zM10.735 12.665c-1.295 0.472-2.733-0.199-3.204-1.494-0.283-0.777-1.145-1.179-1.923-0.896-0.712 0.259-1.109 1.005-0.953 1.725h-1.013c-0.144-1.133 0.507-2.258 1.624-2.665 1.295-0.472 2.733 0.199 3.204 1.494 0.283 0.777 1.145 1.179 1.923 0.896 0.712-0.259 1.109-1.005 0.953-1.725h1.014c0.144 1.133-0.507 2.258-1.624 2.665z" fill="#8c5666"></path>
</g>
<g transform="translate(288 0)">
	<path d="M8 0c-4.418 0-8 3.582-8 8s3.582 8 8 8 8-3.582 8-8-3.582-8-8-8zM11 4c0.552 0 1 0.448 1 1s-0.448 1-1 1-1-0.448-1-1 0.448-1 1-1zM4 5c0-0.552 0.448-1 1-1s1 0.448 1 1-0.448 1-1 1-1-0.448-1-1zM5.176 12.6l-0.351-1.2 6.828-2 0.351 1.2-6.828 2z" fill="#8c5666"></path>
</g>
<g transform="translate(320 0)">
	<path d="M8 0c-4.418 0-8 3.582-8 8s3.582 8 8 8 8-3.582 8-8-3.582-8-8-8zM5 11.5c0 0.276-0.224 0.5-0.5 0.5s-0.5-0.224-0.5-0.5v-1c0-0.276 0.224-0.5 0.5-0.5s0.5 0.224 0.5 0.5v1zM5 8.5c0 0.276-0.224 0.5-0.5 0.5s-0.5-0.224-0.5-0.5v-1c0-0.276 0.224-0.5 0.5-0.5s0.5 0.224 0.5 0.5v1zM5.5 6h-2c-0.276 0-0.5-0.224-0.5-0.5s0.224-0.5 0.5-0.5h2c0.276 0 0.5 0.224 0.5 0.5s-0.224 0.5-0.5 0.5zM9.854 13.229c-0.098 0.098-0.226 0.146-0.354 0.146s-0.256-0.049-0.354-0.146c-0.072-0.072-0.46-0.229-1.146-0.229s-1.075 0.157-1.146 0.229c-0.195 0.195-0.512 0.195-0.707 0s-0.195-0.512 0-0.707c0.471-0.471 1.453-0.521 1.854-0.521s1.383 0.051 1.854 0.521c0.195 0.195 0.195 0.512 0 0.707zM12 11.5c0 0.276-0.224 0.5-0.5 0.5s-0.5-0.224-0.5-0.5v-1c0-0.276 0.224-0.5 0.5-0.5s0.5 0.224 0.5 0.5v1zM12 8.5c0 0.276-0.224 0.5-0.5 0.5s-0.5-0.224-0.5-0.5v-1c0-0.276 0.224-0.5 0.5-0.5s0.5 0.224 0.5 0.5v1zM12.5 6h-2c-0.276 0-0.5-0.224-0.5-0.5s0.224-0.5 0.5-0.5h2c0.276 0 0.5 0.224 0.5 0.5s-0.224 0.5-0.5 0.5z" fill="#8c5666"></path>
</g>

</svg>
