<?xml version="1.0" encoding="utf-8"?>
<!-- Generator: Adobe Illustrator 18.1.1, SVG Export Plug-In . SVG Version: 6.00 Build 0)  -->
<svg version="1.1" id="Layer_1" xmlns="http://www.w3.org/2000/svg" xmlns:xlink="http://www.w3.org/1999/xlink" x="0px" y="0px"
	 width="40px" height="76px" viewBox="6 -29 40 76" enable-background="new 6 -29 40 76" xml:space="preserve">
<rect x="6" y="-29" width="40" height="76"/>
<polygon fill="#1db954" points="46,-15 31,-15 26,-29 21,-15 6,-15 17.8,-5.5 13.6,9 26,1.4 38.4,9 34.2,-5.5 "/>
<g>
	<path fill="#1db954" d="M26,12l4.1,11.4l0.2,0.7H31h12.1l-9.5,7.5L33,31.9l0.2,0.6l3.4,11.8l-10.1-6.2L26,37.8l-0.5,0.3l-10.1,6.3
		l3.4-11.8l0.2-0.6l-0.5-0.4L8.9,24H21h0.7l0.2-0.7L26,12 M26,9l-5,14H6l11.8,9.3l-4.2,14.3L26,39l12.4,7.6l-4.2-14.2L46,23H31L26,9
		L26,9z"/>
</g>
</svg>
