<?xml version="1.0" encoding="utf-8"?>
<!-- Generator: Adobe Illustrator 16.0.4, SVG Export Plug-In . SVG Version: 6.00 Build 0)  -->
<!DOCTYPE svg PUBLIC "-//W3C//DTD SVG 1.1//EN" "http://www.w3.org/Graphics/SVG/1.1/DTD/svg11.dtd">
<svg version="1.1" id="Layer_1" xmlns="http://www.w3.org/2000/svg" xmlns:xlink="http://www.w3.org/1999/xlink" x="0px" y="0px"
	 width="40px" height="76px" viewBox="0 0 40 76" enable-background="new 0 0 40 76" xml:space="preserve">
<rect fill-rule="evenodd" clip-rule="evenodd" fill="#FFFFFF" width="40" height="76"/>
<polygon fill-rule="evenodd" clip-rule="evenodd" fill="#FF6A00" points="40,14 25,14 20,0.001 15,14 0,14 11.818,23.523 
	7.641,37.998 20,30.397 32.359,37.998 28.182,23.523 "/>
<g>
	<path fill="#FF6A00" d="M20,40.973l4.059,11.363L24.295,53H25h12.109l-9.546,7.502l-0.532,0.418l0.19,0.649L30.67,73.32
		l-10.147-6.214l-0.526-0.322l-0.523,0.325L9.33,73.398l3.449-11.847l0.189-0.648l-0.532-0.417L2.895,53H15h0.705l0.237-0.664
		L20,40.973 M20,38.001L15,52H0l11.818,9.273L7.641,75.622L20,67.959l12.359,7.569l-4.178-14.239L40,52H25L20,38.001L20,38.001z"/>
</g>
</svg>
