<?xml version="1.0" encoding="utf-8"?>
<!-- Generator: Adobe Illustrator 16.0.4, SVG Export Plug-In . SVG Version: 6.00 Build 0)  -->
<!DOCTYPE svg PUBLIC "-//W3C//DTD SVG 1.1//EN" "http://www.w3.org/Graphics/SVG/1.1/DTD/svg11.dtd">
<svg version="1.1" id="Layer_1" xmlns="http://www.w3.org/2000/svg" xmlns:xlink="http://www.w3.org/1999/xlink" x="0px" y="0px"
	 width="44px" height="84px" viewBox="0 0 44 84" enable-background="new 0 0 44 84" xml:space="preserve">
<rect fill-rule="evenodd" clip-rule="evenodd" fill="#FFFFFF" width="44" height="84"/>
<polygon fill-rule="evenodd" clip-rule="evenodd" fill="#E2221B" points="43.994,16.042 27.997,15.999 21.997,0 15.997,15.999 
	0,16.042 12.997,25.999 8.401,41.998 21.997,33.598 35.592,41.998 30.997,25.999 "/>
<g>
	<path fill="#E2221B" d="M21.997,44.85l5.063,13.503l0.243,0.646l0.69,0.002l13.061,0.035l-10.666,8.171l-0.541,0.415l0.188,0.655
		l3.88,13.512l-11.393-7.04l-0.526-0.325l-0.525,0.325l-11.395,7.04l3.881-13.512l0.188-0.655l-0.542-0.415L2.939,59.036L16,59.001
		l0.691-0.002l0.243-0.646L21.997,44.85 M21.997,42.002l-6,15.999L0,58.044l12.997,9.957L8.401,84l13.596-8.4L35.592,84
		l-4.595-15.999l12.997-9.957l-15.997-0.043L21.997,42.002L21.997,42.002z"/>
</g>
</svg>
