<?xml version="1.0" encoding="utf-8"?>
<!-- Generator: Adobe Illustrator 18.1.1, SVG Export Plug-In . SVG Version: 6.00 Build 0)  -->
<svg version="1.1" id="Layer_1" xmlns="http://www.w3.org/2000/svg" xmlns:xlink="http://www.w3.org/1999/xlink" x="0px" y="0px"
	 width="44px" height="84px" viewBox="8 -33 44 84" enable-background="new 8 -33 44 84" xml:space="preserve">
<rect x="8" y="-33" width="44" height="84"/>
<polygon fill="#FF6A00" points="52,-17 36,-17 30,-33 24,-17 8,-17 21,-7 16.4,9 30,0.6 43.6,9 39,-7 "/>
<g>
	<path fill="#FF6A00" d="M30,11.8l5.1,13.5l0.2,0.6l0.7,0l13.1,0l-10.7,8.2l-0.5,0.4l0.2,0.7l3.9,13.5l-11.4-7L30,41.4l-0.5,0.3
		l-11.4,7L22,35.3l0.2-0.7l-0.5-0.4L10.9,26L24,26l0.7,0l0.2-0.6L30,11.8 M30,9l-6,16L8,25l13,10l-4.6,16L30,42.6L43.6,51L39,35
		l13-10l-16,0L30,9L30,9z"/>
</g>
</svg>
