<?xml version="1.0" encoding="utf-8"?>
<!-- Generator: Adobe Illustrator 16.0.4, SVG Export Plug-In . SVG Version: 6.00 Build 0)  -->
<!DOCTYPE svg PUBLIC "-//W3C//DTD SVG 1.1//EN" "http://www.w3.org/Graphics/SVG/1.1/DTD/svg11.dtd">
<svg version="1.1" id="Layer_1" xmlns="http://www.w3.org/2000/svg" xmlns:xlink="http://www.w3.org/1999/xlink" x="0px" y="0px"
	 width="19px" height="75px" viewBox="0 0 19 75" enable-background="new 0 0 19 75" xml:space="preserve">
<g>
	<g>
		<path fill-rule="evenodd" clip-rule="evenodd" fill="#FFFFFF" d="M16,50l3-50H0l3,50H16z M18,1l-3,48H4L1,1H18z M9.5,58
			C4.806,58,1,61.806,1,66.5S4.806,75,9.5,75s8.5-3.806,8.5-8.5S14.194,58,9.5,58z M9.5,74C5.358,74,2,70.643,2,66.5
			S5.358,59,9.5,59c4.143,0,7.5,3.357,7.5,7.5S13.643,74,9.5,74z"/>
	</g>
</g>
</svg>
