<?xml version="1.0" encoding="utf-8"?>
<!-- Generator: Adobe Illustrator 16.0.4, SVG Export Plug-In . SVG Version: 6.00 Build 0)  -->
<!DOCTYPE svg PUBLIC "-//W3C//DTD SVG 1.1//EN" "http://www.w3.org/Graphics/SVG/1.1/DTD/svg11.dtd">
<svg version="1.1" id="Layer_1" xmlns="http://www.w3.org/2000/svg" xmlns:xlink="http://www.w3.org/1999/xlink" x="0px" y="0px"
	 width="30px" height="69px" viewBox="0 0 30 69" enable-background="new 0 0 30 69" xml:space="preserve">
<g>
	<path fill="#FFFFFF" d="M13.44,1c2.13,0,3.906,0.688,5.427,2.105c1.501,1.397,2.23,3.026,2.23,4.981
		c0,1.951-0.734,3.571-2.246,4.953c-1.539,1.406-3.31,2.09-5.412,2.09c-2.133,0-3.917-0.684-5.456-2.089
		c-1.511-1.382-2.246-3.002-2.246-4.954c0-1.953,0.736-3.581,2.249-4.978C9.525,1.689,11.308,1,13.44,1 M21,25v34v2v0.32
		l0.188,0.262c0.314,0.439,1.42,1.909,2.402,2.33c0.176,0.079,0.393,0.204,0.622,0.336c0.448,0.258,0.956,0.551,1.509,0.712
		c0.213,0.062,0.562,0.196,0.932,0.339c0.455,0.176,0.92,0.354,1.349,0.488V67H1v-1.279l2.316-0.771l0.067-0.022l0.063-0.03l2-1
		C5.551,63.843,8,62.588,8,60V34c0-1.46-0.8-2.945-1.144-3.518c-0.495-0.818-1.355-1.684-2.301-2.314
		c-0.419-0.28-0.595-0.346-0.983-0.429c-0.146-0.032-0.346-0.075-0.72-0.188c-0.75-0.225-1.3-0.35-1.852-0.435V25H21 M13.44,0
		c-2.373,0-4.417,0.791-6.13,2.373S4.739,5.86,4.739,8.086c0,2.227,0.857,4.124,2.571,5.691c1.714,1.566,3.757,2.352,6.13,2.352
		c2.344,0,4.373-0.785,6.087-2.352c1.713-1.567,2.57-3.465,2.57-5.691s-0.851-4.131-2.55-5.713C17.85,0.791,15.812,0,13.44,0
		L13.44,0z M22,24H0v4c0.879,0.088,1.494,0.188,2.564,0.509C3.633,28.832,3.473,28.648,4,29c0.703,0.469,1.531,1.225,2,2
		c0.468,0.777,1,1.975,1,3v26c0,2-2,3-2,3l-2,1l-3,1v3h29v-3c-0.762-0.088-2.297-0.795-3-1s-1.414-0.736-2-1c-0.82-0.352-2-2-2-2
		s0-0.975,0-2V24L22,24z"/>
</g>
</svg>
