<?xml version="1.0" encoding="utf-8"?>
<!-- Generator: Adobe Illustrator 16.0.4, SVG Export Plug-In . SVG Version: 6.00 Build 0)  -->
<!DOCTYPE svg PUBLIC "-//W3C//DTD SVG 1.1//EN" "http://www.w3.org/Graphics/SVG/1.1/DTD/svg11.dtd">
<svg version="1.1" id="Layer_1" xmlns="http://www.w3.org/2000/svg" xmlns:xlink="http://www.w3.org/1999/xlink" x="0px" y="0px"
	 width="60px" height="60px" viewBox="0 0 60 60" enable-background="new 0 0 60 60" xml:space="preserve">
<g>
	<path fill="#FFFFFF" d="M9.066,1.91l20.446,20.187l0.708,0.7l0.703-0.706L50.756,2.17l7.073,7.105L38.062,29.128l-0.709,0.711
		l0.715,0.706l20,19.749l-7.133,7.044L30.988,37.645l-0.707-0.699l-0.703,0.707L9.245,58.073l-7.074-7.105l20.267-20.354
		l0.708-0.711l-0.714-0.706L1.931,8.954L9.066,1.91 M9.066,0.505L0.508,8.954L21.73,29.907L0.76,50.968l8.485,8.522l21.042-21.135
		l20.648,20.388l8.558-8.449l-20.722-20.46L59.24,9.275l-8.484-8.522L30.214,21.386L9.066,0.505L9.066,0.505z"/>
</g>
</svg>
