<?xml version="1.0" encoding="utf-8"?>
<!-- Generator: Adobe Illustrator 16.0.4, SVG Export Plug-In . SVG Version: 6.00 Build 0)  -->
<!DOCTYPE svg PUBLIC "-//W3C//DTD SVG 1.1//EN" "http://www.w3.org/Graphics/SVG/1.1/DTD/svg11.dtd">
<svg version="1.1" id="Layer_1" xmlns="http://www.w3.org/2000/svg" xmlns:xlink="http://www.w3.org/1999/xlink" x="0px" y="0px"
	 width="25px" height="17px" viewBox="0 0 25 17" enable-background="new 0 0 25 17" xml:space="preserve">
<g>
	<g>
		<path fill-rule="evenodd" clip-rule="evenodd" d="M0,0v17h25V0H0z M13,1h5v3h-5V1z M13,5h5v3h-5V5z M18,9v3h-5V9H18z M1,1h11v3H1
			V1z M1,5h11v3H1V5z M1,9h11v3H1V9z M1,16v-3h11v3H1z M13,16v-3h5v3H13z M24,16h-5v-3h5V16z M24,12h-5V9h5V12z M24,8h-5V5h5V8z
			 M24,4h-5V1h5V4z"/>
	</g>
</g>
</svg>
