<?xml version="1.0" encoding="utf-8"?>
<!-- Generator: Adobe Illustrator 16.0.4, SVG Export Plug-In . SVG Version: 6.00 Build 0)  -->
<!DOCTYPE svg PUBLIC "-//W3C//DTD SVG 1.1//EN" "http://www.w3.org/Graphics/SVG/1.1/DTD/svg11.dtd">
<svg version="1.1" id="Layer_1" xmlns="http://www.w3.org/2000/svg" xmlns:xlink="http://www.w3.org/1999/xlink" x="0px" y="0px"
	 width="28px" height="23px" viewBox="0 -0.184 28 23" enable-background="new 0 -0.184 28 23" xml:space="preserve">
<path fill="#000000" d="M28,2.517c-1.027,0.458-2.138,0.768-3.298,0.907c1.183-0.712,2.096-1.841,2.522-3.187
	c-1.108,0.66-2.336,1.141-3.645,1.398c-1.049-1.12-2.539-1.819-4.194-1.819c-3.173,0-5.746,2.579-5.746,5.76
	c0,0.452,0.052,0.892,0.148,1.312C9.017,6.648,4.783,4.355,1.949,0.87C1.456,1.721,1.171,2.709,1.171,3.765
	c0,1.999,1.014,3.762,2.555,4.794C2.785,8.53,1.9,8.271,1.126,7.839c0,0.024-0.001,0.049-0.001,0.073c0,2.792,1.98,5.12,4.609,5.646
	c-0.483,0.134-0.99,0.204-1.515,0.204c-0.37,0-0.729-0.037-1.081-0.103c0.732,2.285,2.854,3.951,5.367,3.998
	c-1.966,1.546-4.442,2.465-7.133,2.465c-0.464,0-0.922-0.027-1.372-0.081c2.542,1.636,5.561,2.591,8.806,2.591
	c10.567,0,16.343-8.775,16.343-16.388c0-0.251-0.007-0.499-0.016-0.747C26.259,4.688,27.23,3.673,28,2.517"/>
</svg>
