<?xml version="1.0" encoding="utf-8"?>
<!-- Generator: Adobe Illustrator 16.0.4, SVG Export Plug-In . SVG Version: 6.00 Build 0)  -->
<!DOCTYPE svg PUBLIC "-//W3C//DTD SVG 1.1//EN" "http://www.w3.org/Graphics/SVG/1.1/DTD/svg11.dtd">
<svg version="1.1" id="Layer_1" xmlns="http://www.w3.org/2000/svg" xmlns:xlink="http://www.w3.org/1999/xlink" x="0px" y="0px"
	 width="14px" height="16px" viewBox="0 0 14 16" enable-background="new 0 0 14 16" xml:space="preserve">
<g>
	<path fill="#767676" d="M7,1c1.654,0,3,1.346,3,3c0,0.771-0.299,1.507-0.841,2.072L8.281,6.988l1.095,0.64
		c2.206,1.289,3.415,3.767,3.6,7.372H1.025c0.185-3.605,1.393-6.083,3.599-7.372l1.096-0.64L4.84,6.072C4.298,5.507,4,4.771,4,4
		C4,2.346,5.346,1,7,1 M7,0C4.791,0,3,1.791,3,4c0,1.075,0.429,2.046,1.119,2.765C1.235,8.45,0,11.705,0,16h14
		c0-4.295-1.235-7.55-4.119-9.235C10.57,6.046,11,5.075,11,4C11,1.791,9.209,0,7,0L7,0z"/>
</g>
</svg>
