<?xml version="1.0" encoding="utf-8"?>
<!-- Generator: Adobe Illustrator 19.2.0, SVG Export Plug-In . SVG Version: 6.00 Build 0)  -->
<svg version="1.1" id="Layer_1" xmlns="http://www.w3.org/2000/svg" xmlns:xlink="http://www.w3.org/1999/xlink" x="0px" y="0px"
	 viewBox="0 0 20 20" style="enable-background:new 0 0 20 20;" xml:space="preserve">
<style type="text/css">
	.st0{fill:none;stroke:#1db954;stroke-linejoin:round;stroke-miterlimit:10;}
</style>
<path class="st0" d="M10,19.5h9.5c0,0,0-1.7-0.8-3.4c-0.6-1.2-3.3-2.1-6.6-3.3v-2.5c0,0,1.2-0.8,1.2-2.5c0.4,0,0.8-1.7,0-2.1
	c0-0.2,1.1-2.3,0.8-3.7C13.7,0,7.9,0,7.5,1.7C5,1.7,6.7,5.5,6.7,5.8c-0.8,0.4-0.4,2.1,0,2.1c0,1.7,1.2,2.5,1.2,2.5v2.5
	c-3.3,1.2-6,2.1-6.6,3.3c-0.8,1.7-0.8,3.4-0.8,3.4H10z"/>
</svg>
